<svg width="193" height="42" viewBox="0 0 193 42" fill="none" xmlns="http://www.w3.org/2000/svg">
<path d="M69.412 31.976C69.988 33.464 70.816 34.232 71.896 34.28V35C70.936 34.928 69.652 34.892 68.044 34.892C65.98 34.892 64.444 34.928 63.436 35V34.28C64.348 34.232 64.996 34.124 65.38 33.956C65.788 33.764 65.992 33.428 65.992 32.948C65.992 32.54 65.848 31.976 65.56 31.256L63.364 25.352H54.652L53.176 29.168C52.696 30.464 52.456 31.448 52.456 32.12C52.456 32.864 52.708 33.404 53.212 33.74C53.74 34.076 54.532 34.256 55.588 34.28V35C54.22 34.928 52.84 34.892 51.448 34.892C50.368 34.892 49.468 34.928 48.748 35V34.28C49.948 33.992 50.896 32.948 51.592 31.148L60.052 9.332H60.628L69.412 31.976ZM63.076 24.632L59.044 13.868L54.94 24.632H63.076ZM77.7238 31.652C77.7238 32.636 77.9278 33.32 78.3358 33.704C78.7438 34.064 79.4518 34.244 80.4598 34.244V35C78.2518 34.904 76.7998 34.856 76.1038 34.856C75.4078 34.856 73.9558 34.904 71.7478 35V34.244C72.7558 34.244 73.4638 34.064 73.8718 33.704C74.2798 33.32 74.4838 32.636 74.4838 31.652V11.096C74.4838 9.992 74.2798 9.188 73.8718 8.684C73.4638 8.18 72.7558 7.928 71.7478 7.928V7.172C72.4918 7.244 73.2358 7.28 73.9798 7.28C75.4918 7.28 76.7398 7.112 77.7238 6.776V31.652ZM85.6846 7.46C86.3086 7.46 86.8486 7.688 87.3046 8.144C87.7606 8.6 87.9886 9.14 87.9886 9.764C87.9886 10.388 87.7606 10.928 87.3046 11.384C86.8486 11.84 86.3086 12.068 85.6846 12.068C85.0606 12.068 84.5206 11.84 84.0646 11.384C83.6086 10.928 83.3806 10.388 83.3806 9.764C83.3806 9.14 83.6086 8.6 84.0646 8.144C84.5206 7.688 85.0606 7.46 85.6846 7.46ZM87.5566 31.652C87.5566 32.636 87.7606 33.32 88.1686 33.704C88.5766 34.064 89.2846 34.244 90.2926 34.244V35C88.0846 34.904 86.6326 34.856 85.9366 34.856C85.2406 34.856 83.7886 34.904 81.5806 35V34.244C82.5886 34.244 83.2966 34.064 83.7046 33.704C84.1126 33.32 84.3166 32.636 84.3166 31.652V20.384C84.3166 19.28 84.1126 18.476 83.7046 17.972C83.2966 17.468 82.5886 17.216 81.5806 17.216V16.46C82.3486 16.532 83.0926 16.568 83.8126 16.568C85.3246 16.568 86.5726 16.4 87.5566 16.064V31.652ZM103.503 15.956C105.183 15.956 106.455 16.412 107.319 17.324C107.775 17.804 108.099 18.404 108.291 19.124C108.483 19.844 108.579 20.816 108.579 22.04V31.652C108.579 32.636 108.783 33.32 109.191 33.704C109.599 34.064 110.307 34.244 111.315 34.244V35C109.107 34.904 107.667 34.856 106.995 34.856C106.323 34.856 104.979 34.904 102.963 35V34.244C103.851 34.244 104.463 34.064 104.799 33.704C105.159 33.32 105.339 32.636 105.339 31.652V21.248C105.339 19.904 105.147 18.884 104.763 18.188C104.379 17.468 103.599 17.108 102.423 17.108C101.439 17.108 100.563 17.396 99.7954 17.972C99.0274 18.548 98.4274 19.34 97.9954 20.348C97.5874 21.332 97.3834 22.436 97.3834 23.66V31.652C97.3834 32.636 97.5514 33.32 97.8874 33.704C98.2474 34.064 98.8714 34.244 99.7594 34.244V35C97.7434 34.904 96.3994 34.856 95.7274 34.856C95.0554 34.856 93.6154 34.904 91.4074 35V34.244C92.4154 34.244 93.1234 34.064 93.5314 33.704C93.9394 33.32 94.1434 32.636 94.1434 31.652V20.384C94.1434 19.28 93.9394 18.476 93.5314 17.972C93.1234 17.468 92.4154 17.216 91.4074 17.216V16.46C92.1754 16.532 92.9194 16.568 93.6394 16.568C95.1514 16.568 96.3994 16.4 97.3834 16.064V20.312C97.9834 18.776 98.8114 17.672 99.8674 17C100.947 16.304 102.159 15.956 103.503 15.956ZM116.992 35.252C115.48 35.252 114.352 34.88 113.608 34.136C112.888 33.368 112.528 32.312 112.528 30.968C112.528 29.888 112.816 29 113.392 28.304C113.992 27.608 114.688 27.056 115.48 26.648C116.296 26.24 117.364 25.808 118.684 25.352C120.028 24.896 121.024 24.476 121.672 24.092C122.32 23.708 122.644 23.192 122.644 22.544V20.312C122.644 18.92 122.344 17.972 121.744 17.468C121.168 16.94 120.352 16.676 119.296 16.676C117.616 16.676 116.428 17.108 115.732 17.972C116.212 18.092 116.608 18.344 116.92 18.728C117.256 19.112 117.424 19.592 117.424 20.168C117.424 20.768 117.232 21.248 116.848 21.608C116.464 21.944 115.972 22.112 115.372 22.112C114.7 22.112 114.196 21.908 113.86 21.5C113.524 21.068 113.356 20.552 113.356 19.952C113.356 19.376 113.488 18.896 113.752 18.512C114.04 18.128 114.46 17.744 115.012 17.36C115.588 16.952 116.32 16.616 117.208 16.352C118.096 16.088 119.068 15.956 120.124 15.956C121.996 15.956 123.412 16.4 124.372 17.288C124.972 17.84 125.368 18.512 125.56 19.304C125.776 20.072 125.884 21.092 125.884 22.364V32.372C125.884 32.972 125.968 33.404 126.136 33.668C126.304 33.932 126.592 34.064 127 34.064C127.288 34.064 127.552 34.004 127.792 33.884C128.056 33.74 128.332 33.548 128.62 33.308L129.016 33.92C128.392 34.4 127.852 34.748 127.396 34.964C126.964 35.156 126.412 35.252 125.74 35.252C124.588 35.252 123.784 34.964 123.328 34.388C122.872 33.812 122.644 33.032 122.644 32.048C121.924 33.248 121.096 34.088 120.16 34.568C119.224 35.024 118.168 35.252 116.992 35.252ZM118.576 33.812C120.16 33.812 121.516 32.9 122.644 31.076V24.02C122.428 24.356 122.128 24.632 121.744 24.848C121.36 25.064 120.772 25.352 119.98 25.712C119.068 26.096 118.324 26.468 117.748 26.828C117.196 27.164 116.716 27.632 116.308 28.232C115.9 28.832 115.696 29.6 115.696 30.536C115.696 31.616 115.96 32.432 116.488 32.984C117.016 33.536 117.712 33.812 118.576 33.812ZM146.849 10.232C145.985 10.28 145.349 10.376 144.941 10.52C144.557 10.664 144.293 10.94 144.149 11.348C144.005 11.756 143.933 12.416 143.933 13.328V31.184C143.933 32.096 144.005 32.756 144.149 33.164C144.293 33.572 144.557 33.848 144.941 33.992C145.349 34.112 145.985 34.172 146.849 34.172H149.477C150.965 34.172 152.093 33.968 152.861 33.56C153.653 33.128 154.229 32.444 154.589 31.508C154.949 30.572 155.213 29.216 155.381 27.44H156.209C156.137 28.184 156.101 29.168 156.101 30.392C156.101 31.76 156.185 33.296 156.353 35C154.721 34.928 151.973 34.892 148.109 34.892C143.501 34.892 140.021 34.928 137.669 35V34.28C138.533 34.232 139.157 34.136 139.541 33.992C139.949 33.848 140.225 33.572 140.369 33.164C140.513 32.756 140.585 32.096 140.585 31.184V13.328C140.585 12.416 140.513 11.756 140.369 11.348C140.225 10.94 139.949 10.664 139.541 10.52C139.157 10.376 138.533 10.28 137.669 10.232V9.512C138.677 9.584 140.213 9.62 142.277 9.62C144.197 9.62 145.721 9.584 146.849 9.512V10.232ZM173.269 30.68C172.837 32 172.021 33.14 170.821 34.1C169.645 35.036 168.217 35.504 166.537 35.504C164.833 35.504 163.357 35.12 162.109 34.352C160.861 33.56 159.901 32.468 159.229 31.076C158.581 29.66 158.257 28.028 158.257 26.18C158.257 24.092 158.593 22.28 159.265 20.744C159.937 19.208 160.885 18.032 162.109 17.216C163.333 16.376 164.761 15.956 166.393 15.956C168.553 15.956 170.209 16.616 171.361 17.936C172.537 19.232 173.125 21.212 173.125 23.876H161.857C161.785 24.548 161.749 25.316 161.749 26.18C161.749 27.764 162.001 29.144 162.505 30.32C163.033 31.496 163.717 32.408 164.557 33.056C165.421 33.68 166.321 33.992 167.257 33.992C168.409 33.992 169.429 33.716 170.317 33.164C171.205 32.612 171.949 31.688 172.549 30.392L173.269 30.68ZM166.249 16.64C165.121 16.64 164.149 17.192 163.333 18.296C162.517 19.4 162.013 21.032 161.821 23.192H169.669C169.717 21.32 169.441 19.76 168.841 18.512C168.265 17.264 167.401 16.64 166.249 16.64ZM190.76 30.68C190.328 32 189.512 33.14 188.312 34.1C187.136 35.036 185.708 35.504 184.028 35.504C182.324 35.504 180.848 35.12 179.6 34.352C178.352 33.56 177.392 32.468 176.72 31.076C176.072 29.66 175.748 28.028 175.748 26.18C175.748 24.092 176.084 22.28 176.756 20.744C177.428 19.208 178.376 18.032 179.6 17.216C180.824 16.376 182.252 15.956 183.884 15.956C186.044 15.956 187.7 16.616 188.852 17.936C190.028 19.232 190.616 21.212 190.616 23.876H179.348C179.276 24.548 179.24 25.316 179.24 26.18C179.24 27.764 179.492 29.144 179.996 30.32C180.524 31.496 181.208 32.408 182.048 33.056C182.912 33.68 183.812 33.992 184.748 33.992C185.9 33.992 186.92 33.716 187.808 33.164C188.696 32.612 189.44 31.688 190.04 30.392L190.76 30.68ZM183.74 16.64C182.612 16.64 181.64 17.192 180.824 18.296C180.008 19.4 179.504 21.032 179.312 23.192H187.16C187.208 21.32 186.932 19.76 186.332 18.512C185.756 17.264 184.892 16.64 183.74 16.64Z" fill="#0E1112"/>
<circle cx="21" cy="21" r="21" fill="#B7CAD5"/>
<path d="M13.672 35.434C11.0267 35.434 9.04267 34.752 7.72 33.388C6.43867 32.024 5.798 30.226 5.798 27.994C5.798 26.134 6.27333 24.6047 7.224 23.406C8.216 22.166 9.394 21.2153 10.758 20.554C12.1633 19.8927 13.9407 19.19 16.09 18.446C18.3633 17.6607 20.0167 16.958 21.05 16.338C22.1247 15.6767 22.662 14.788 22.662 13.672V8.836C22.662 7.1 22.2487 5.75667 21.422 4.806C20.6367 3.814 19.3967 3.318 17.702 3.318C15.718 3.318 14.2093 3.814 13.176 4.806C14.3333 5.21933 15.222 5.83933 15.842 6.666C16.5033 7.49267 16.834 8.464 16.834 9.58C16.834 10.9853 16.3587 12.1013 15.408 12.928C14.4573 13.7547 13.3 14.168 11.936 14.168C10.4893 14.168 9.37333 13.7133 8.588 12.804C7.80267 11.8947 7.41 10.758 7.41 9.394C7.41 8.23667 7.67867 7.26533 8.216 6.48C8.79467 5.65333 9.66267 4.88867 10.82 4.186C11.936 3.52467 13.3 3.008 14.912 2.636C16.5653 2.264 18.3633 2.078 20.306 2.078C22.3313 2.078 24.088 2.28467 25.576 2.698C27.064 3.11133 28.304 3.814 29.296 4.806C30.2053 5.71533 30.8047 6.83133 31.094 8.154C31.4247 9.47667 31.59 11.2747 31.59 13.548V30.412C31.59 31.404 31.6727 32.1067 31.838 32.52C32.0447 32.9333 32.4167 33.14 32.954 33.14C33.574 33.14 34.318 32.7887 35.186 32.086L35.806 33.14C33.946 34.6693 31.6727 35.434 28.986 35.434C26.7127 35.434 25.1213 34.9793 24.212 34.07C23.3027 33.1607 22.8273 31.9413 22.786 30.412C20.7193 33.76 17.6813 35.434 13.672 35.434ZM18.446 31.466C20.058 31.466 21.4633 30.6187 22.662 28.924V16.214C22.166 17.0407 21.112 17.95 19.5 18.942C17.888 19.9753 16.6687 21.0087 15.842 22.042C15.0153 23.0753 14.602 24.5633 14.602 26.506C14.602 28.2007 14.9533 29.4613 15.656 30.288C16.3587 31.0733 17.2887 31.466 18.446 31.466Z" fill="white"/>
</svg>
